<svg xmlns="http://www.w3.org/2000/svg" viewBox="-124.5 -73.5 882.0 882.0" width="64" height="64">
	<style>
		.shp1 { fill: #22d7ff }
		.shp2 { fill: #2c3ee2 }
		.shp3 { fill: #01aacf }
		.shp4 { fill: #01119a }
	</style>
	<path fill-rule="evenodd" class="shp1" d="M300.28 4.29C305.26 1.66 310.8 0.29 316.43 0.3L316.59 175.49C311.05 175.49 305.53 176.85 300.43 179.49L18.67 327.28C13.03 330.22 8.31 334.65 5.02 340.09C1.74 345.54 0.01 351.78 0.03 358.14L-0.2 182.95C-0.2 176.58 1.54 170.33 4.83 164.89C8.12 159.44 12.84 155 18.48 152.05L300.28 4.29Z" />
	<path fill-rule="evenodd" class="shp2" d="M18.74 408.97L300.86 556.12C305.91 558.77 311.47 560.06 317.02 560.07L317.21 735.27C311.66 735.3 306.12 733.97 301.03 731.3L18.92 584.18C13.28 581.24 8.55 576.81 5.25 571.37C1.95 565.93 0.2 559.69 0.2 553.32L0.01 378.13C0.03 391.09 7.23 402.97 18.74 408.99L18.74 408.97Z" />
	<path fill-rule="evenodd" class="shp1" d="M18.67 345.02L300.46 197.28C305.52 194.62 311.08 193.29 316.62 193.29L316.81 368.48C311.25 368.48 305.71 369.81 300.67 372.48L18.88 520.23C13.24 523.17 8.51 527.61 5.21 533.06C1.92 538.51 0.18 544.76 0.2 551.13L0.01 375.93C-0.01 362.97 7.19 351.06 18.67 345.02Z" />
	<path fill-rule="evenodd" class="shp3" d="M613.83 151.4C619.48 154.33 624.22 158.75 627.53 164.2C630.84 169.64 632.59 175.88 632.59 182.25L632.78 357.43C632.77 344.5 625.53 332.62 614.05 326.65L331.94 179.47C326.94 176.85 321.38 175.48 315.74 175.49L315.58 0.28C321.12 0.28 326.67 1.59 331.75 4.22L613.83 151.4Z" />
	<path fill-rule="evenodd" class="shp4" d="M614.14 408.34C619.77 405.38 624.49 400.94 627.78 395.5C631.07 390.05 632.81 383.8 632.8 377.44L632.99 552.63C633.01 565.61 625.82 577.51 614.33 583.54L332.52 731.29C327.49 733.94 321.95 735.29 316.38 735.28L316.17 560.09C321.74 560.07 327.29 558.76 332.36 556.08L614.15 408.34L614.14 408.34Z" />
	<path fill-rule="evenodd" class="shp3" d="M614.07 344.39C619.71 347.32 624.44 351.75 627.74 357.18C631.05 362.62 632.8 368.85 632.81 375.21L633 550.44C632.99 537.47 625.78 525.62 614.26 519.65L332.16 372.48C327.16 369.86 321.61 368.5 315.96 368.49L315.77 193.3C321.34 193.25 326.91 194.61 331.97 197.21L614.08 344.4L614.07 344.39Z" />
</svg>
